G75*
%MOIN*%
%OFA0B0*%
%FSLAX25Y25*%
%IPPOS*%
%LPD*%
%AMOC8*
5,1,8,0,0,1.08239X$1,22.5*
%
%ADD10R,0.02910X0.05251*%
%ADD11C,0.00394*%
%ADD12R,0.06800X0.10971*%
%ADD13R,0.04126X0.05016*%
%ADD14C,0.07087*%
%ADD15R,0.03937X0.04331*%
%ADD16C,0.04750*%
%ADD17C,0.04159*%
%ADD18C,0.07677*%
%ADD19C,0.01000*%
%ADD20C,0.00600*%
D10*
G36*
X0022061Y0047174D02*
X0020004Y0045117D01*
X0016293Y0048828D01*
X0018350Y0050885D01*
X0022061Y0047174D01*
G37*
D11*
X0048730Y0042373D02*
X0048730Y0056535D01*
X0052719Y0060524D01*
X0071330Y0060524D01*
X0071330Y0072894D01*
X0073849Y0075413D01*
X0084033Y0075413D01*
X0085434Y0076814D01*
X0085434Y0090366D01*
X0083924Y0091875D01*
X0058038Y0091875D01*
X0055413Y0089250D01*
X0055413Y0085245D01*
X0055412Y0085245D02*
X0055406Y0084782D01*
X0055390Y0084320D01*
X0055362Y0083858D01*
X0055323Y0083397D01*
X0055272Y0082937D01*
X0055211Y0082478D01*
X0055139Y0082021D01*
X0055055Y0081566D01*
X0054961Y0081113D01*
X0054856Y0080662D01*
X0054739Y0080214D01*
X0054612Y0079769D01*
X0054475Y0079328D01*
X0054326Y0078889D01*
X0054168Y0078455D01*
X0053998Y0078024D01*
X0053819Y0077598D01*
X0053629Y0077176D01*
X0053429Y0076758D01*
X0053219Y0076346D01*
X0052999Y0075939D01*
X0052769Y0075537D01*
X0052529Y0075141D01*
X0052281Y0074751D01*
X0052022Y0074367D01*
X0051755Y0073990D01*
X0051478Y0073618D01*
X0051193Y0073254D01*
X0050899Y0072897D01*
X0050596Y0072547D01*
X0050285Y0072204D01*
X0049966Y0071869D01*
X0049639Y0071542D01*
X0049304Y0071223D01*
X0048961Y0070912D01*
X0048611Y0070609D01*
X0048254Y0070315D01*
X0047890Y0070030D01*
X0047518Y0069753D01*
X0047141Y0069486D01*
X0046757Y0069227D01*
X0046367Y0068979D01*
X0045971Y0068739D01*
X0045569Y0068509D01*
X0045162Y0068289D01*
X0044750Y0068079D01*
X0044332Y0067879D01*
X0043910Y0067689D01*
X0043484Y0067510D01*
X0043053Y0067340D01*
X0042619Y0067182D01*
X0042180Y0067033D01*
X0041739Y0066896D01*
X0041294Y0066769D01*
X0040846Y0066652D01*
X0040395Y0066547D01*
X0039942Y0066453D01*
X0039487Y0066369D01*
X0039030Y0066297D01*
X0038571Y0066236D01*
X0038111Y0066185D01*
X0037650Y0066146D01*
X0037188Y0066118D01*
X0036726Y0066102D01*
X0036263Y0066096D01*
X0019274Y0062773D02*
X0079357Y0002592D01*
X0106754Y0002592D01*
X0107296Y0003134D01*
X0107296Y0006955D01*
X0106627Y0007624D01*
X0083458Y0007624D01*
X0048730Y0042373D01*
X0023396Y0045941D02*
X0017015Y0052281D01*
X0017014Y0052281D02*
X0016947Y0052207D01*
X0016877Y0052135D01*
X0016805Y0052066D01*
X0016730Y0052000D01*
X0016652Y0051937D01*
X0016572Y0051877D01*
X0016489Y0051820D01*
X0016405Y0051766D01*
X0016319Y0051716D01*
X0016230Y0051668D01*
X0016140Y0051625D01*
X0016049Y0051584D01*
X0015956Y0051548D01*
X0015861Y0051514D01*
X0015766Y0051485D01*
X0015669Y0051459D01*
X0015571Y0051437D01*
X0015473Y0051419D01*
X0015374Y0051404D01*
X0015274Y0051393D01*
X0015174Y0051386D01*
X0015074Y0051383D01*
X0014974Y0051384D01*
X0014874Y0051388D01*
X0014774Y0051397D01*
X0014675Y0051409D01*
X0014576Y0051425D01*
X0014478Y0051445D01*
X0014381Y0051468D01*
X0014284Y0051496D01*
X0014189Y0051526D01*
X0014095Y0051561D01*
X0014003Y0051599D01*
X0013912Y0051641D01*
X0013822Y0051686D01*
X0013735Y0051734D01*
X0013649Y0051786D01*
X0013565Y0051841D01*
X0013484Y0051899D01*
X0013405Y0051960D01*
X0013328Y0052025D01*
X0012921Y0052445D01*
X0012814Y0052597D01*
X0012760Y0052680D01*
X0012708Y0052766D01*
X0012661Y0052853D01*
X0012616Y0052943D01*
X0012576Y0053034D01*
X0012539Y0053126D01*
X0012505Y0053220D01*
X0012475Y0053315D01*
X0012449Y0053411D01*
X0012427Y0053508D01*
X0012409Y0053606D01*
X0012394Y0053705D01*
X0012384Y0053804D01*
X0012377Y0053903D01*
X0012374Y0054003D01*
X0012375Y0054102D01*
X0012380Y0054202D01*
X0012389Y0054301D01*
X0012402Y0054400D01*
X0012418Y0054498D01*
X0012439Y0054595D01*
X0012463Y0054692D01*
X0012491Y0054788D01*
X0012523Y0054882D01*
X0012559Y0054975D01*
X0012598Y0055067D01*
X0012640Y0055157D01*
X0012687Y0055245D01*
X0012736Y0055331D01*
X0012789Y0055416D01*
X0012845Y0055498D01*
X0012905Y0055578D01*
X0012967Y0055656D01*
X0013033Y0055731D01*
X0013101Y0055803D01*
X0013173Y0055873D01*
X0013246Y0055940D01*
X0013323Y0056003D01*
X0013402Y0056064D01*
X0013483Y0056122D01*
X0011094Y0058554D01*
X0010519Y0059126D01*
X0014164Y0062772D01*
X0016167Y0062773D01*
X0019274Y0062773D01*
X0009859Y0079419D02*
X0001197Y0070757D01*
X0001197Y0050878D01*
X0009133Y0042942D01*
X0020397Y0042942D01*
X0021855Y0044401D01*
X0023396Y0045941D01*
X0019979Y0079419D02*
X0009859Y0079419D01*
X0019979Y0079420D02*
X0020064Y0079022D01*
X0020159Y0078626D01*
X0020264Y0078233D01*
X0020379Y0077843D01*
X0020503Y0077455D01*
X0020636Y0077071D01*
X0020779Y0076690D01*
X0020931Y0076313D01*
X0021092Y0075939D01*
X0021262Y0075570D01*
X0021442Y0075204D01*
X0021630Y0074844D01*
X0021827Y0074488D01*
X0022033Y0074137D01*
X0022247Y0073791D01*
X0022469Y0073450D01*
X0022700Y0073115D01*
X0022939Y0072786D01*
X0023186Y0072463D01*
X0023441Y0072145D01*
X0023704Y0071835D01*
X0023974Y0071530D01*
X0024251Y0071233D01*
X0024536Y0070942D01*
X0024827Y0070658D01*
X0025126Y0070382D01*
X0025431Y0070113D01*
X0025743Y0069851D01*
X0026061Y0069598D01*
X0026385Y0069352D01*
X0026715Y0069114D01*
X0027051Y0068884D01*
X0027392Y0068663D01*
X0027739Y0068450D01*
X0028091Y0068245D01*
X0028447Y0068049D01*
X0028809Y0067862D01*
X0029174Y0067684D01*
X0029544Y0067515D01*
X0029918Y0067355D01*
X0030296Y0067204D01*
X0030678Y0067063D01*
X0031063Y0066931D01*
X0031451Y0066808D01*
X0031841Y0066695D01*
X0032235Y0066592D01*
X0032631Y0066498D01*
X0033029Y0066414D01*
X0033429Y0066340D01*
X0033831Y0066275D01*
X0034234Y0066220D01*
X0034638Y0066176D01*
X0035044Y0066141D01*
X0035450Y0066116D01*
X0035856Y0066101D01*
X0036263Y0066096D01*
D12*
X0067803Y0066150D03*
D13*
X0105224Y0005101D03*
D14*
X0079835Y0085997D03*
X0065731Y0085860D03*
D15*
G36*
X0059993Y0029690D02*
X0062771Y0026902D01*
X0059705Y0023846D01*
X0056927Y0026634D01*
X0059993Y0029690D01*
G37*
G36*
X0064717Y0024949D02*
X0067495Y0022161D01*
X0064429Y0019105D01*
X0061651Y0021893D01*
X0064717Y0024949D01*
G37*
D16*
X0019962Y0048810D03*
D17*
X0107066Y0005050D03*
D18*
X0070974Y0064585D03*
D19*
X0073261Y0079366D02*
X0067690Y0079366D01*
X0042362Y0054038D01*
X0042362Y0044299D01*
X0059647Y0027014D01*
X0064371Y0022037D02*
X0081218Y0005108D01*
X0107037Y0005108D01*
X0043001Y0062448D02*
X0031356Y0062448D01*
X0024285Y0065377D02*
X0022915Y0066680D01*
X0022915Y0066681D02*
X0010568Y0066681D01*
X0005943Y0062056D01*
X0005943Y0052585D01*
X0012543Y0046005D01*
X0017289Y0045984D01*
X0019146Y0047843D01*
X0024285Y0065377D02*
X0024455Y0065211D01*
X0024629Y0065048D01*
X0024807Y0064891D01*
X0024989Y0064737D01*
X0025174Y0064587D01*
X0025363Y0064443D01*
X0025555Y0064302D01*
X0025751Y0064167D01*
X0025950Y0064035D01*
X0026151Y0063909D01*
X0026356Y0063788D01*
X0026564Y0063671D01*
X0026774Y0063560D01*
X0026987Y0063453D01*
X0027202Y0063352D01*
X0027419Y0063255D01*
X0027639Y0063164D01*
X0027861Y0063079D01*
X0028085Y0062998D01*
X0028311Y0062923D01*
X0028539Y0062853D01*
X0028768Y0062789D01*
X0028998Y0062730D01*
X0029230Y0062677D01*
X0029463Y0062629D01*
X0029698Y0062586D01*
X0029933Y0062550D01*
X0030169Y0062519D01*
X0030405Y0062493D01*
X0030643Y0062473D01*
X0030880Y0062459D01*
X0031118Y0062451D01*
X0031356Y0062448D01*
X0043001Y0062448D02*
X0043239Y0062451D01*
X0043477Y0062459D01*
X0043714Y0062473D01*
X0043952Y0062493D01*
X0044188Y0062519D01*
X0044424Y0062550D01*
X0044659Y0062586D01*
X0044894Y0062629D01*
X0045127Y0062677D01*
X0045359Y0062730D01*
X0045589Y0062789D01*
X0045818Y0062853D01*
X0046046Y0062923D01*
X0046272Y0062998D01*
X0046496Y0063079D01*
X0046718Y0063164D01*
X0046938Y0063255D01*
X0047155Y0063352D01*
X0047370Y0063453D01*
X0047583Y0063560D01*
X0047793Y0063671D01*
X0048001Y0063788D01*
X0048206Y0063909D01*
X0048407Y0064035D01*
X0048606Y0064167D01*
X0048802Y0064302D01*
X0048994Y0064443D01*
X0049183Y0064587D01*
X0049368Y0064737D01*
X0049550Y0064891D01*
X0049728Y0065048D01*
X0049902Y0065211D01*
X0050072Y0065377D01*
X0065713Y0081019D01*
X0065713Y0085633D01*
X0073261Y0079366D02*
X0079787Y0085891D01*
D20*
X0102831Y0005818D02*
X0103489Y0005831D01*
X0102831Y0005818D02*
X0102185Y0005173D01*
X0102160Y0005095D02*
X0102857Y0004411D01*
X0103412Y0004411D01*
M02*
